<?xml version="1.0" encoding="utf-8"?>
<!DOCTYPE svg PUBLIC "-//W3C//DTD SVG 1.1//EN" "http://www.w3.org/Graphics/SVG/1.1/DTD/svg11.dtd">
<svg fill="white" version="1.1" id="Layer_1" xmlns="http://www.w3.org/2000/svg" xmlns:xlink="http://www.w3.org/1999/xlink" x="0px" y="0px"
	 viewBox="568 67.2 863.1 825.6" enable-background="new 568 67.2 863.1 825.6" xml:space="preserve">
<g>
	<path d="M1352.3,230.4h-49.9V67.2H698.6v163.2h-49.9c-45.1,0-80.6,35.5-80.6,79.7v301.4c0,44.2,35.5,79.7,79.7,79.7h20.2v201.6
		h495.4l168-168v-32.6h20.2c44.2,0,79.7-35.5,79.7-79.7V310.1C1432,265.9,1396.5,230.4,1352.3,230.4L1352.3,230.4z M748.5,117.1h503
		l0,113.3h-503L748.5,117.1z M1076.8,591.4v242.9h-26.9V591.4H1076.8z M1022.1,834.2h-68.2l0-242.9h68.2L1022.1,834.2z M935.7,834.2
		h-26.9V591.4h26.9V834.2z M872.3,834.2h-26.9V591.4h26.9V834.2z M766.7,834.2h-39.4V591.4h39.4V834.2z M1138.2,834.2h-56.6
		l39.4-3.8l0-239h95v164.2L1138.2,834.2z M1217.9,754.6l54.7-54.7L1217.9,754.6z M1372.5,612.5c0,11.5-9.6,20.2-20.2,20.2h-20.2
		l0-100.8H669.8v100.8h-20.2c-11.5,0-20.2-9.6-20.2-20.2V310.1c0-11.5,9.6-20.2,20.2-20.2h703.7c11.5,0,20.2,9.6,20.2,20.2l0,302.4
		L1372.5,612.5z M1201.6,385.9c0,13.4-11.5,25-25,25c-13.4,0-25-11.5-25-25c0-13.4,11.5-25,25-25
		C1190.1,361,1201.6,371.5,1201.6,385.9z M1301.4,385.9c0,13.4-11.5,25-25,25s-25-11.5-25-25c0-13.4,11.5-25,25-25
		C1290.9,361,1301.4,371.5,1301.4,385.9z"/>
</g>
</svg>
