<?xml version="1.0" encoding="utf-8"?>
<!DOCTYPE svg PUBLIC "-//W3C//DTD SVG 1.1//EN" "http://www.w3.org/Graphics/SVG/1.1/DTD/svg11.dtd">
<svg version="1.1" id="Layer_1" xmlns="http://www.w3.org/2000/svg" xmlns:xlink="http://www.w3.org/1999/xlink" x="0px" y="0px"
	 viewBox="179.2 102.2 355.6 355.6" enable-background="new 179.2 102.2 355.6 355.6" xml:space="preserve">
<g>
	<path fill="#FFFFFF" d="M357,457.8c47.2,0,92.4-18.7,125.7-52.1s52.1-78.6,52.1-125.7s-18.7-92.4-52.1-125.7s-78.6-52.1-125.7-52.1
		s-92.4,18.7-125.7,52.1s-52.1,78.6-52.1,125.7c0.1,47.1,18.8,92.3,52.1,125.7C264.7,439,309.9,457.7,357,457.8L357,457.8z
		 M357,141.4L357,141.4c36.8,0,72,14.6,98,40.6c26,26,40.6,61.2,40.6,98S481,352,455,378c-26,26-61.2,40.6-98,40.6S285,404,259,378
		c-26-26-40.6-61.2-40.6-98c0-36.7,14.7-72,40.6-98C285,156.1,320.3,141.4,357,141.4L357,141.4z"/>
	<path fill="#FFFFFF" d="M443.8,242.8L416.1,215l-76.6,76.6l-29.3-29.3L282.5,290l57,57L443.8,242.8z"/>
</g>
</svg>
