<?xml version="1.0" encoding="utf-8"?>
<!-- Generator: Adobe Illustrator 17.1.0, SVG Export Plug-In . SVG Version: 6.00 Build 0)  -->
<!DOCTYPE svg PUBLIC "-//W3C//DTD SVG 1.1//EN" "http://www.w3.org/Graphics/SVG/1.1/DTD/svg11.dtd">
<svg version="1.1" id="Layer_1" xmlns="http://www.w3.org/2000/svg" xmlns:xlink="http://www.w3.org/1999/xlink" x="0px" y="0px"
	 viewBox="535 15 930 930" enable-background="new 535 15 930 930" xml:space="preserve">
<g>
	<path d="M1429,334.5c22.5-16.9,36-43.8,36-72V155c0-44.5-33.2-82.8-77.3-89.1L1040,16.3c-5.9-0.8-12-1.3-18-1.3
		c-58.7,0-108.1,40.1-122.6,94.3c-16.3-2.6-32.9-4.3-49.4-4.3c-173.7,0-315,141.3-315,315s141.3,315,315,315
		c150,0,278-105.8,308.2-250.1c10.9,6.2,23.4,10.1,36.8,10.1h21c35.3,64.6,54,137.3,54,210.9v49c0,36.7,28.4,66.5,64.4,69.5
		l45.2,120.6h85.4v-30l-29-103.5c17.5-12.8,29-33.2,29-56.5c0-4.2-0.4-8.4-1.1-12.5L1406,424c-0.7-3.5-1-7.1-1-10.7v-30.7
		C1405,363.7,1414,345.8,1429,334.5L1429,334.5z M1435,155v22.3c-22-4.9-34.4-12.3-47.2-20.1c-16.6-10.1-35.5-21.5-73.5-26.9
		c-38-5.4-59.3,0.2-78.1,5.2c-17.6,4.7-34.2,9-66.2,4.5c-31.9-4.6-46.6-13.5-62.2-22.9c-15-9.1-31.9-19.2-62.7-25.1V47.3l338.5,48.4
		C1412.9,99.8,1435,125.4,1435,155L1435,155z M940.2,345H925v90h30v-79.3c9.3,5.8,19.3,10.5,30,13.8V495h30V374.6
		c2.3,0.1,4.7,0.4,7,0.4h23v150H655V315h259.3C921.4,326.3,930.1,336.4,940.2,345L940.2,345z M925,142c0-51.1,39.8-93,90-96.7v299.3
		c-50.2-3.6-90-45.5-90-96.7V142z M850,705c-157.2,0-285-127.8-285-285s127.8-285,285-285c15.2,0,30.3,1.5,45.1,3.9
		c0,1-0.1,2.1-0.1,3.1V248c0,12.9,2,25.3,5.5,37L625,285v270h450V375h45v45c0,14.9,4.5,28.7,12,40.3C1112.1,600.1,992,705,850,705
		L850,705z M1150,420v-45h45c8.3,0,15,6.7,15,15v75h-15C1170.2,465,1150,444.8,1150,420z M1432,735h-120.7
		c39.7-31.6,63.6-80.3,63.6-131.6c0-25.6,7.1-50.1,20.1-71.5L1432,735z M1301.4,765h132.1c-4.5,17.2-20,30-38.6,30H1340
		C1321.5,795,1305.9,782.2,1301.4,765z M1434.4,915h-34l-33.8-90h28.3c4.6,0,9-0.5,13.3-1.4L1434.4,915z M1375,382.5v30.7
		c0,5.4,0.5,10.8,1.5,16.1l11.3,62.3c-27.5,30.8-42.8,70-42.8,111.7c0,38.7-16.8,75.3-45,101.4c-0.2-80-20.9-159-60-228.8V390
		c0-24.8-20.2-45-45-45h-150V122.6c21.9,4.9,34.3,12.3,47.2,20.1c16.6,10.1,35.5,21.5,73.5,26.9c38,5.4,59.3-0.2,78.1-5.2
		c17.6-4.7,34.2-9.1,66.2-4.5c32,4.6,46.7,13.5,62.2,22.9c15,9.1,31.9,19.2,62.8,25.1l0,54.5c0,18.8-9,36.7-24,48
		C1388.5,327.4,1375,354.3,1375,382.5L1375,382.5z"/>
	<path d="M685,345h30v150h-30V345z"/>
	<path d="M745,345h30v90h-30V345z"/>
	<path d="M745,465h30v30h-30V465z"/>
	<path d="M805,345h30v150h-30V345z"/>
	<path d="M925,465h30v30h-30V465z"/>
	<path d="M865,345h30v90h-30V345z"/>
	<path d="M865,465h30v30h-30V465z"/>
</g>
</svg>
