<?xml version="1.0" encoding="utf-8"?>
<!-- Generator: Adobe Illustrator 17.1.0, SVG Export Plug-In . SVG Version: 6.00 Build 0)  -->
<!DOCTYPE svg PUBLIC "-//W3C//DTD SVG 1.1//EN" "http://www.w3.org/Graphics/SVG/1.1/DTD/svg11.dtd">
<svg version="1.1" id="Layer_1" xmlns="http://www.w3.org/2000/svg" xmlns:xlink="http://www.w3.org/1999/xlink" x="0px" y="0px"
	 viewBox="632.1 64.8 735.9 830.3" enable-background="new 632.1 64.8 735.9 830.3" xml:space="preserve">
<g>
	<path fill="#000" d="M1352.1,67.7c-10.9-5.3-23.9-3.1-32.4,5.5c-1.3,1.3-3.2,3.4-4.5,6l-60.8,106.4l4.7-87.6
		c0.3-4.4-1.4-8.8-4.5-12.1c-3.1-3.1-7.3-4.9-11.8-4.8c-19.2,0.8-37.4,8.8-51.1,22.6c-13.5,13.5-21.5,31.5-22.4,50.6l-8.9,167.5
		L838.3,553c-15.6,11.2-35.9,13.9-53.8,7.3c-2.1-3-4.3-5.7-6.7-8c-28.7-28.7-80.7-23.5-115.7,11.7c-16.7,16.7-27.1,37.6-29.5,59
		c-2.5,22.2,4,42.2,18.3,56.3c12.5,12.5,29.6,18.7,47.7,18.7c17.6,0,36.3-5.8,52.9-17.5l322.4-227.3L847.8,773.8l-1.2,1.7
		c-23.9,34-23.5,76.4,1,100.9c12.3,12.2,28.9,18.7,47.5,18.7c3,0,6-0.1,9-0.5c21.4-2.3,42.3-12.8,59-29.5
		c35.2-35.2,40.3-87,11.7-115.7c-2.5-2.3-5.1-4.7-8-6.7c-6.6-18-3.9-38.4,7.3-54l207.6-288.9l91.3-79.3c5.8-5.1,10.4-11.4,13.2-18.5
		l79.6-198.1C1371.5,90.2,1365.4,74.3,1352.1,67.7L1352.1,67.7z M1205.2,117.4c9.3-9.3,21.4-15.2,34.1-16.6l-6.5,122.2l-28,48.9
		l-24.1,27.5l7.7-144.1C1189.1,141,1195.1,127.5,1205.2,117.4L1205.2,117.4z M958.2,677.4c-15.7,21.8-18.9,50.7-8.4,75.5
		c0.8,1.8,2.1,3.4,3.8,4.4c2.9,1.7,5.3,3.6,7.4,5.8c21.1,21.1,15.8,60.7-11.7,88.2c-13.5,13.5-30.4,22.1-47.4,23.9
		c-16.1,1.8-30.5-2.7-40.5-12.7c-17.8-17.8-17.4-49.7,1.3-76.2l229.7-325.7c1.2-1.7,1.7-3.6,1.7-5.6l16.6,2.1
		c2.6,0.3,5.2-0.5,7.3-2.1L958.2,677.4z M1347.9,96.5L1268,294.7c-1.7,4.3-4.4,8-7.9,11.2l-151.3,131.3l-35.5-4.3
		c-2.3-0.3-4.8,0.3-6.7,1.7L742.1,663.4l-1.7,1.2c-26.2,18.4-58.1,18.9-75.9,1c-10-10-14.4-24.3-12.7-40.5
		c1.8-17,10.4-33.9,23.9-47.4c27.5-27.5,67.2-32.8,88.2-11.7c2.1,2.1,4,4.5,5.8,7.4c0.9,1.6,2.3,2.9,4,3.6
		c24.9,10.8,54.1,7.7,76-8.2l325.4-234.2c0.5-0.4,1.3-1,1.7-1.6l43.3-49.3c0.4-0.5,0.8-1,1.2-1.6l29.8-52.2c0-0.1,0.1-0.1,0.1-0.3
		l81-141.5c0.3-0.4,0.6-0.9,1.3-1.6c2.7-2.7,6.9-3.4,10.1-1.8C1347.8,87.2,1349.6,92.2,1347.9,96.5L1347.9,96.5z"/>
	<path fill="#000" d="M721.3,578.6c-10.1,2.3-20.2,8-28.5,16.3c-8.3,8.3-14,18.3-16.2,28.3c-2.3,10.5-0.4,19.7,5.1,25.2
		c3.9,3.9,9.9,6,16.7,6c2.7,0,5.6-0.3,8.4-0.9c10-2.2,20-7.9,28.3-16.2c10.9-10.9,17.4-24.9,17.4-37.5c0-6.9-2.1-12.6-5.8-16.3
		C741.3,577.9,732.1,576.1,721.3,578.6L721.3,578.6z M721.5,623.5c-11.2,11.2-22.7,12.5-25.9,11.2c-1.3-3.2,0-14.8,11.2-25.9
		c11.5-11.5,24-12.7,26.1-11.9C734.2,599.5,733,611.9,721.5,623.5L721.5,623.5z"/>
	<path fill="#000" d="M889.9,791.9c-19.3,19.3-21.4,43.3-11.2,53.5c3.9,3.9,9.7,6,16.7,6c2.7,0,5.6-0.3,8.6-0.9
		c10-2.2,20-7.9,28.3-16.2c19.3-19.3,21.5-43.8,11.5-54C933.7,770.3,909.1,772.7,889.9,791.9L889.9,791.9z M929.7,793.7
		c1.6,2.7,0.3,15.2-11.3,26.9c-11.2,11.2-22.7,12.5-25.9,11.2c-1.3-3.2,0-14.8,11.2-25.9C915.2,794.1,927.6,792.9,929.7,793.7
		L929.7,793.7z"/>
	<path fill="#000" d="M1208.4,328.1c-3.8-3.8-10-3.8-13.9,0c-3.9,3.8-3.8,10,0,13.9c1.7,1.7,3.9,2.7,6.2,2.9h0.6
		c2.6,0,5.1-1,6.9-2.9c3.4-3.4,3.8-9,0.9-12.8C1209,328.7,1208.7,328.3,1208.4,328.1L1208.4,328.1z"/>
</g>
</svg>
