<?xml version="1.0" encoding="utf-8"?>
<!DOCTYPE svg PUBLIC "-//W3C//DTD SVG 1.1//EN" "http://www.w3.org/Graphics/SVG/1.1/DTD/svg11.dtd">
<svg version="1.1" id="Layer_1" xmlns="http://www.w3.org/2000/svg" xmlns:xlink="http://www.w3.org/1999/xlink" x="0px" y="0px"
	 viewBox="105 87.5 490 384.5" enable-background="new 105 87.5 490 384.5" xml:space="preserve">
<path d="M542.5,87.5h-385c-13.9,0-27.3,5.6-37.1,15.4c-9.8,9.8-15.4,23.2-15.4,37.1v210c0,13.1,5,25.6,13.8,35.3
	c8.8,9.6,20.9,15.6,33.9,16.8l-4.3,17.1v0c-3.5,14.8,1.1,30.4,12,41c11,10.6,26.8,14.5,41.4,10.4c14.7-4.1,26-15.7,29.9-30.5
	l9.4-37.4h217.7l9.4,37.4h0c3.9,14.7,15.2,26.3,29.9,30.5c14.7,4.1,30.4,0.2,41.4-10.4c11-10.6,15.6-26.1,12-41l-4.3-17.1v0
	c13-1.2,25.1-7.1,33.9-16.8c8.8-9.6,13.7-22.2,13.8-35.3V140c0-13.9-5.6-27.3-15.4-37.1C569.8,93.1,556.4,87.5,542.5,87.5
	L542.5,87.5z M197.8,431.5c-1.1,4.2-5.4,6.7-9.6,5.7c-4.2-1.1-6.8-5.3-5.8-9.6l6.3-25.1h16.4L197.8,431.5z M502.2,431.5l-7.2-29
	h16.4l6.3,25.1c1,4.2-1.6,8.5-5.8,9.6C507.6,438.2,503.3,435.7,502.2,431.5L502.2,431.5z M560,350c0,4.6-1.8,9.1-5.1,12.4
	s-7.7,5.1-12.4,5.1h-385c-4.6,0-9.1-1.9-12.4-5.1c-3.3-3.3-5.1-7.7-5.1-12.4V140c0-4.6,1.9-9.1,5.1-12.4c3.3-3.3,7.7-5.1,12.4-5.1
	h385c4.6,0,9.1,1.8,12.4,5.1c3.3,3.3,5.1,7.7,5.1,12.4V350z M280,140c-27.8,0-54.6,11.1-74.2,30.8S175,217.2,175,245
	s11.1,54.6,30.8,74.2S252.2,350,280,350s54.6-11.1,74.2-30.8S385,272.8,385,245c0-27.8-11.1-54.5-30.8-74.2
	C334.5,151.1,307.8,140,280,140z M280,315c-15.5,0-30.5-5.2-42.7-14.7s-20.9-22.8-24.8-37.8h50c6.3,0,12-3.3,15.2-8.8
	s3.1-12.1,0-17.5s-8.9-8.8-15.2-8.8h-50c4.4-16.9,15-31.6,29.8-41.1c14.7-9.5,32.5-13.1,49.7-10.1c17.3,3,32.8,12.3,43.5,26.2
	c10.7,13.9,15.8,31.2,14.3,48.7c-1.5,17.5-9.5,33.7-22.4,45.5C314.4,308.5,297.5,315,280,315z M525,175c0,4.6-1.8,9.1-5.1,12.4
	c-3.3,3.3-7.7,5.1-12.4,5.1h-70c-6.3,0-12-3.3-15.2-8.8s-3.1-12.1,0-17.5s8.9-8.8,15.2-8.8h70c4.6,0,9.1,1.8,12.4,5.1
	C523.2,165.9,525,170.4,525,175L525,175z M525,245c0,4.6-1.8,9.1-5.1,12.4c-3.3,3.3-7.7,5.1-12.4,5.1h-70c-6.3,0-12-3.3-15.2-8.8
	s-3.1-12.1,0-17.5s8.9-8.8,15.2-8.8h70c4.6,0,9.1,1.8,12.4,5.1C523.2,235.9,525,240.4,525,245L525,245z M525,315
	c0,4.6-1.8,9.1-5.1,12.4c-3.3,3.3-7.7,5.1-12.4,5.1h-70c-6.3,0-12-3.3-15.2-8.8s-3.1-12.1,0-17.5s8.9-8.8,15.2-8.8h70
	c4.6,0,9.1,1.8,12.4,5.1C523.2,305.9,525,310.4,525,315L525,315z"/>
</svg>
