<?xml version="1.0" encoding="utf-8"?>
<!-- Generator: Adobe Illustrator 17.1.0, SVG Export Plug-In . SVG Version: 6.00 Build 0)  -->
<!DOCTYPE svg PUBLIC "-//W3C//DTD SVG 1.1//EN" "http://www.w3.org/Graphics/SVG/1.1/DTD/svg11.dtd">
<svg version="1.1" id="Layer_1" xmlns="http://www.w3.org/2000/svg" xmlns:xlink="http://www.w3.org/1999/xlink" x="0px" y="0px"
	 viewBox="121.6 6.4 474.6 548" enable-background="new 121.6 6.4 474.6 548" xml:space="preserve">
<g>
	<path d="M447.9,391.1c0,13.7-11.9,24.9-26.7,24.9c-14.7,0-26.7-11.1-26.7-24.9c0-13.8,11.9-24.9,26.7-24.9
		C436,366.2,447.9,377.4,447.9,391.1"/>
	<path d="M296.7,366.2c-14.7,0-26.7,11.1-26.7,24.9c0,13.8,11.9,24.9,26.7,24.9c14.7,0,26.7-11.1,26.7-24.9
		C323.4,377.4,311.4,366.2,296.7,366.2z"/>
	<path d="M589.1,148.3L367.1,8.8c-5-3.1-11.4-3.1-16.4,0L128.8,148.3c-6.1,3.8-8.7,11.4-6.3,18.2l48,133.9
		c-8.3,21.1-12.6,43-12.6,65.4c0,104,90.2,188.5,201,188.5c110.8,0,201-84.6,201-188.6c0-22.4-4.3-44.4-12.6-65.4l48-133.9
		C597.8,159.7,595.2,152.1,589.1,148.3L589.1,148.3z M359,40l203.3,127.8l-22.4,62.4l-361.8,0l-22.4-62.4L359,40z M520,285.4H197.9
		l-8.8-24.5h339.7L520,285.4z M359,523.6c-93.9,0-170.2-70.8-170.2-157.8c0-17,2.9-33.6,8.7-49.7h323c5.8,16.1,8.7,32.8,8.7,49.7
		C529.2,452.8,452.8,523.6,359,523.6L359,523.6z"/>
	<path d="M324.2,164.2h21v21c0,8.5,6.9,15.4,15.4,15.4c8.5,0,15.4-6.9,15.4-15.4v-21h21c8.5,0,15.4-6.9,15.4-15.4
		c0-8.5-6.9-15.4-15.4-15.4h-21v-21c0-8.5-6.9-15.4-15.4-15.4c-8.5,0-15.4,6.9-15.4,15.4v21h-21c-8.5,0-15.4,6.9-15.4,15.4
		S315.7,164.2,324.2,164.2z"/>
</g>
</svg>
