<?xml version="1.0" encoding="utf-8"?>
<!DOCTYPE svg PUBLIC "-//W3C//DTD SVG 1.1//EN" "http://www.w3.org/Graphics/SVG/1.1/DTD/svg11.dtd">
<svg version="1.1" id="Layer_1" xmlns="http://www.w3.org/2000/svg" xmlns:xlink="http://www.w3.org/1999/xlink" x="0px" y="0px"
	 viewBox="544 24 912 912" enable-background="new 544 24 912 912" xml:space="preserve">
<g>
	<path fill="#FFFFFF" d="M1157.4,322.6c-13.4-13.4-35.5-13.4-49.9,0L1000,430.1L892.5,322.6c-13.4-13.4-35.5-13.4-49.9,0
		c-13.4,13.4-13.4,35.5,0,49.9L950.1,480L842.6,587.5c-13.4,13.4-13.4,35.5,0,49.9c6.7,6.7,16.3,10.6,25,10.6
		c8.6,0,18.2-3.8,25-10.6L1000,529.9l107.5,107.5c6.7,6.7,16.3,10.6,25,10.6c8.6,0,18.2-3.8,25-10.6c13.4-13.4,13.4-35.5,0-49.9
		L1049.9,480l107.5-107.5C1170.9,358.1,1170.9,336,1157.4,322.6L1157.4,322.6z"/>
	<path fill="#FFFFFF" d="M1000,24c-251.5,0-456,204.5-456,456s204.5,456,456,456s456-204.5,456-456S1251.5,24,1000,24z M1000,865.9
		c-213.1,0-385.9-172.8-385.9-385.9S786.9,94.1,1000,94.1s385.9,172.8,385.9,385.9S1213.1,865.9,1000,865.9z"/>
</g>
</svg>
